<svg width="20" height="27" fill="none" xmlns="http://www.w3.org/2000/svg"><path d="M15.54 7.06h-7.6v.96h7.6v-.96ZM15.54 9.47h-7.6v.96h7.6v-.96ZM15.54 14.28h-7.6v.96h7.6v-.96ZM15.47 19.09h-7.6v.96h7.6v-.96ZM15.47 16.68h-7.6v.97h7.6v-.97ZM15.47 11.87h-7.6v.96h7.6v-.96ZM15.54 21.5h-7.6v.96h7.6v-.97Z" fill="#fff" fill-opacity=".4"/><path d="M14.88 1.75V0H5.12v1.75H0V27h20V1.75h-5.12Zm0 3.96v-.84h2.05v19H3.07v-19h2.05v.84h9.76ZM6.1.96h7.8v3.79H6.1V.96Zm12.92 25.08H.98V2.7h4.14v1.2H2.1v20.93h15.82V3.9h-3.03v-1.2h4.14v23.33Z" fill="#fff" fill-opacity=".4"/><path d="M12.38 2.38H7.62v.96h4.76v-.96ZM3.64 8.34 5.23 9.9l2.1-2.06-.7-.68-1.4 1.38-.9-.88-.69.68ZM5.23 14.66l-.9-.88-.69.68 1.59 1.57 2.1-2.07-.7-.68-1.4 1.38ZM6.45 19.06l-.97.96-.96-.96-.7.69.97.95-.97.95.7.68.96-.95.97.95.7-.68-.97-.95.96-.95-.69-.69Z" fill="#fff" fill-opacity=".4"/></svg>