<svg width="24" height="24" fill="none" xmlns="http://www.w3.org/2000/svg"><path d="m23.36 8.24-7.6-7.6A2.16 2.16 0 0 0 14.22 0c-.58 0-1.13.23-1.54.64L.64 12.68a2.16 2.16 0 0 0 0 3.08l.93.94 6.3 6.3H7a.5.5 0 0 0 0 1h10a.5.5 0 0 0 0-1h-5.32l11.68-11.68c.85-.85.85-2.23 0-3.08Zm-.7 2.37L10.6 22.66c-.22.22-.52.34-.83.34-.32 0-.62-.12-.84-.34l-6.3-6.31L14.2 4.78a.5.5 0 0 0-.7-.7L1.93 15.63l-.59-.58a1.17 1.17 0 0 1-.34-.84c0-.31.12-.6.34-.83L13.4 1.34c.22-.22.52-.34.83-.34.32 0 .61.12.84.34l2.7 2.7L6.2 15.63a.5.5 0 0 0 .7.7L18.48 4.76l4.19 4.18c.46.46.46 1.21 0 1.67Z" fill="#fff" fill-opacity=".4"/><path d="M12.32 14.44a.5.5 0 0 0-.7 0l-3.94 3.94a.5.5 0 0 0 .7.7l3.94-3.93a.5.5 0 0 0 0-.7ZM10.7 18.18l-1.6 1.61a.5.5 0 0 0 .7.7l1.61-1.6a.5.5 0 0 0-.7-.71ZM12.19 16.7l-.21.2a.5.5 0 0 0 .7.71l.22-.21a.5.5 0 1 0-.71-.7ZM19.08 7.68a.5.5 0 0 0-.7 0L16.24 9.8a.5.5 0 0 0 0 .7l1.42 1.42a.5.5 0 0 0 .7 0L20.5 9.8a.5.5 0 0 0 0-.7l-1.42-1.42Zm-1.06 3.18-.7-.7 1.4-1.42.72.7-1.42 1.42ZM15.02 3.76a.5.5 0 0 0 .35-.15l.21-.21a.5.5 0 0 0-.7-.7l-.22.2a.5.5 0 0 0 .36.86ZM5.03 16.78 4.8 17a.5.5 0 0 0 .71.7l.21-.2a.5.5 0 0 0-.7-.72Z" fill="#fff" fill-opacity=".4"/></svg>