<svg width="20" height="24" fill="none" xmlns="http://www.w3.org/2000/svg"><path d="M17.27 8.94v-2.5C17.27 2.9 14.01 0 10 0S2.73 2.9 2.73 6.44v2.5A3.24 3.24 0 0 0 0 12.1v8.69A3.25 3.25 0 0 0 3.29 24H16.7A3.25 3.25 0 0 0 20 20.79V12.1c0-1.58-1.18-2.9-2.73-3.16ZM3.64 6.44C3.64 3.38 6.49.9 10 .9c3.5 0 6.36 2.5 6.36 5.55V8.9H3.64V6.44ZM19.09 20.8a2.35 2.35 0 0 1-2.38 2.32H3.3A2.35 2.35 0 0 1 .9 20.8V12.1a2.35 2.35 0 0 1 2.38-2.32H16.7a2.35 2.35 0 0 1 2.38 2.32v8.69Z" fill="#fff" fill-opacity=".4"/><path d="M10 12.44c-1 0-1.82.8-1.82 1.78v2.67c0 .98.82 1.78 1.82 1.78s1.82-.8 1.82-1.78v-2.67A1.8 1.8 0 0 0 10 12.44Zm.9 4.45a.9.9 0 0 1-.9.89.9.9 0 0 1-.9-.9v-2.66c0-.49.4-.89.9-.89s.9.4.9.9v2.66Z" fill="#fff" fill-opacity=".4"/></svg>