<svg width="24" height="22" fill="none" xmlns="http://www.w3.org/2000/svg"><path d="m23.67 15.34-.59-.12a.8.8 0 0 1-.6-.54.9.9 0 0 1 .1-.83l.38-.54a.47.47 0 0 0-.04-.57l-.8-.86a.38.38 0 0 0-.52-.06l-.5.37a.74.74 0 0 1-.76.07.85.85 0 0 1-.47-.66l-.1-.67a.42.42 0 0 0-.4-.37h-1.13c-.2 0-.36.15-.4.36l-.14.82a.84.84 0 0 1-.48.64.74.74 0 0 1-.76-.09l-.64-.47a.39.39 0 0 0-.52.06l-.8.86a.47.47 0 0 0-.03.57l.37.54c.16.25.2.55.1.83a.8.8 0 0 1-.6.54l-.59.12a.43.43 0 0 0-.33.43V17c0 .22.15.4.35.44l.62.1c.27.04.5.23.6.5.12.29.1.59-.06.84l-.34.54c-.1.17-.09.4.05.56l.8.86c.14.15.36.17.53.04l.5-.4c.23-.18.5-.22.77-.1.26.1.44.34.49.64l.11.63c.04.21.2.36.4.36h1.13c.2 0 .37-.16.4-.37l.07-.47c.04-.3.22-.55.48-.67a.75.75 0 0 1 .78.1l.36.28c.16.13.38.11.53-.04l.8-.86a.47.47 0 0 0 .04-.56l-.33-.54a.91.91 0 0 1-.07-.83.8.8 0 0 1 .6-.51l.63-.1c.2-.04.34-.22.34-.44v-1.22c0-.2-.14-.39-.33-.43Zm-.48 1.27-.27.05c-.56.09-1.02.47-1.24 1.03-.22.55-.17 1.18.14 1.68l.15.23-.31.34-.07-.06a1.5 1.5 0 0 0-1.58-.2c-.52.23-.89.74-.98 1.34l-.01.1h-.44l-.05-.28c-.1-.59-.48-1.08-1-1.3a1.5 1.5 0 0 0-1.54.22l-.22.18-.32-.34.15-.23c.31-.5.37-1.13.14-1.68a1.63 1.63 0 0 0-1.23-1.03l-.27-.05v-.47l.25-.06c.55-.11 1-.51 1.2-1.07.2-.57.13-1.2-.2-1.68l-.16-.24.31-.33.36.26c.46.33 1.02.4 1.53.17.5-.23.86-.7.97-1.29l.08-.46h.44l.04.3c.09.59.44 1.09.95 1.33s1.1.18 1.56-.16l.21-.15.31.33-.16.24c-.33.49-.4 1.11-.2 1.67.2.57.65.97 1.2 1.08l.26.06v.47Z" fill="#fff" fill-opacity=".4"/><path d="M18.71 14.08c-1.12 0-2.03.99-2.03 2.2 0 1.21.91 2.2 2.03 2.2 1.12 0 2.04-.99 2.04-2.2 0-1.21-.92-2.2-2.04-2.2Zm0 3.52c-.67 0-1.22-.6-1.22-1.32 0-.73.55-1.32 1.22-1.32.67 0 1.22.6 1.22 1.32 0 .73-.55 1.32-1.22 1.32Z" fill="#fff" fill-opacity=".4"/><path d="M10.32 10.5c.4.39.94.59 1.48.59.53 0 1.07-.2 1.47-.6l9.51-9.07v9.14c0 .24.18.44.4.44.23 0 .41-.2.41-.44V.43c0-.05 0-.1-.02-.15l-.02-.04a.43.43 0 0 0-.1-.13.41.41 0 0 0-.08-.06l-.04-.02a.38.38 0 0 0-.14-.03H.4L.26.03.22.05a.39.39 0 0 0-.08.06L.11.15a.42.42 0 0 0-.06.1S.03.26.03.28A.47.47 0 0 0 0 .43V17.6c0 .05 0 .1.02.14l.01.02.02.04a.43.43 0 0 0 .1.13.4.4 0 0 0 .07.06l.04.02.15.03H11.8c.22 0 .4-.2.4-.44s-.18-.44-.4-.44H1.58c1.85-1.59 6.02-5.18 8.16-7.22l.58.56ZM22.12.88l-9.39 8.96c-.51.5-1.35.5-1.87 0l-.8-.77-.01-.01-.03-.03L1.48.88h20.63ZM.81 16.69V1.42l8.3 7.94a293.4 293.4 0 0 1-8.3 7.33Z" fill="#fff" fill-opacity=".4"/></svg>