<svg width="21" height="21" fill="none" xmlns="http://www.w3.org/2000/svg"><path d="M10.47 11.79c3.1 0 5.62-2.65 5.62-5.9A5.75 5.75 0 0 0 10.47 0a5.76 5.76 0 0 0-5.63 5.88c0 3.24 2.52 5.9 5.63 5.9Zm0-10.25a4.26 4.26 0 0 1 4.13 4.34 4.26 4.26 0 0 1-4.13 4.35 4.26 4.26 0 0 1-4.14-4.35 4.26 4.26 0 0 1 4.14-4.34ZM.74 21h19.52c.41 0 .74-.34.74-.78 0-4.07-3.16-7.4-7.05-7.4h-6.9c-3.88 0-7.05 3.31-7.05 7.4 0 .44.33.78.74.78Zm6.31-6.63h6.9c2.83 0 5.15 2.21 5.52 5.07H1.53a5.68 5.68 0 0 1 5.52-5.07Z" fill="#fff"/></svg>