<svg width="22" height="22" fill="none" xmlns="http://www.w3.org/2000/svg"><path d="M20.24 14.56c-.41.36-.99.2-.99-.5v-1.7a.93.93 0 0 0-.93-.92h-1.19c.14.28.2.57.2.87 0 1.04-.8 1.83-1.93 1.88h-.07c-1.12-.05-1.93-.84-1.93-1.88 0-.3.07-.6.2-.87h-1.26c-.5 0-.91.4-.91.91v1.71c0 .7-.59.86-1 .5-.67-.59-1.7-.27-1.74.8.04 1.08 1.07 1.4 1.74.8.4-.35 1-.2 1 .5v1.68c0 .5.4.91.91.91h1.7c.7 0 .86.6.5 1-.59.67-.27 1.7.8 1.75 1.09-.05 1.4-1.08.81-1.75-.36-.4-.2-1 .5-1h1.7c.5 0 .91-.4.91-.91v-1.68c0-.7.57-.85.98-.5.67.6 1.7.28 1.74-.8-.05-1.07-1.07-1.39-1.74-.8Z" fill="#fff" fill-opacity=".4"/><path d="M20.25 5.83c-.41.36-1 .2-1-.5V3.65c0-.5-.41-.9-.92-.9h-1.68c-.7 0-.86-.58-.5-.99.6-.67.28-1.7-.8-1.74-1.09.05-1.4 1.07-.81 1.74.36.4.2.98-.5.98h-1.7a.93.93 0 0 0-.93.93v1.19c.28-.14.58-.2.87-.2 1.05 0 1.84.8 1.89 1.92v.07c-.05 1.12-.84 1.93-1.88 1.93-.3 0-.6-.07-.87-.2v1.26c0 .5.4.9.9.9h1.72c.7 0 .86.6.5 1-.59.67-.27 1.7.81 1.74 1.08-.04 1.4-1.07.8-1.74-.36-.4-.2-1 .5-1h1.68c.5 0 .92-.4.92-.9v-1.7c0-.7.59-.86 1-.5.67.59 1.7.27 1.75-.8-.05-1.08-1.08-1.4-1.75-.8ZM9.67 11.43H7.96c-.7 0-.86-.59-.5-1 .59-.67.27-1.7-.8-1.74-1.09.05-1.4 1.07-.81 1.74.36.4.2 1-.5 1H3.66c-.5 0-.92.4-.92.9v1.7c0 .7-.59.86-1 .5-.67-.59-1.7-.27-1.75.8.04 1.08 1.08 1.4 1.75.8.4-.36 1-.2 1 .5v1.69c0 .5.41.91.92.91h1.67c.7 0 .86.57.5.98-.59.67-.27 1.7.81 1.74 1.08-.04 1.4-1.06.8-1.74-.36-.4-.2-.98.5-.98h1.7c.51 0 .93-.42.93-.93v-1.19c-.27.14-.57.21-.87.21-1.04 0-1.83-.81-1.88-1.93v-.07c.05-1.12.84-1.93 1.88-1.93.3 0 .6.07.87.2v-1.25c0-.5-.4-.91-.9-.91Z" fill="#fff" fill-opacity=".4"/><path d="M11.57 5.83c-.4.36-1 .2-1-.5V3.66c0-.5-.4-.91-.91-.91h-1.7c-.7 0-.86-.6-.5-1 .59-.67.27-1.7-.81-1.75-1.08.05-1.4 1.08-.8 1.75.36.4.2 1-.5 1H3.65c-.5 0-.91.4-.91.91v1.68c0 .7-.58.85-.98.5-.68-.6-1.7-.28-1.75.8.05 1.07 1.07 1.39 1.74.8.41-.37.99-.2.99.5v1.69c0 .5.42.93.93.93h1.19c-.14-.28-.2-.58-.2-.87 0-1.05.8-1.84 1.93-1.88h.07c1.12.04 1.93.83 1.93 1.88 0 .3-.07.6-.2.87h1.26c.5 0 .91-.41.91-.92v-1.7c0-.7.59-.86 1-.5.67.59 1.7.27 1.74-.8-.04-1.09-1.07-1.4-1.74-.81Z" fill="#fff" fill-opacity=".4"/></svg>