<svg width="22" height="22" fill="none" xmlns="http://www.w3.org/2000/svg"><path d="M22 1.48C22 .66 21.34 0 20.53 0H1.47a1.48 1.48 0 0 0-.37 2.91v17.98l1.1-1.11L4.4 22l2.2-2.22L8.8 22l2.2-2.22L13.2 22l2.2-2.22L17.6 22l2.2-2.22 1.1 1.1V2.92c.63-.17 1.1-.74 1.1-1.43ZM20.17 19.1l-.37-.37-2.2 2.22-2.2-2.22-2.2 2.22-2.2-2.22-2.2 2.22-2.2-2.22-2.2 2.22-2.2-2.22-.37.37V1.86h18.34V19.1Zm.73-16.98v-1H1.1v1A.74.74 0 0 1 1.47.74h19.06a.74.74 0 0 1 .37 1.38Z" fill="#fff" fill-opacity=".4"/><path d="M16.13 14.81h-5.5c-.2 0-.36.17-.36.37 0 .2.16.37.36.37h5.5c.2 0 .37-.16.37-.37 0-.2-.16-.37-.37-.37ZM17.7 14.92a.38.38 0 0 0-.1.26c0 .1.04.2.1.26.08.07.17.11.27.11s.19-.04.26-.1a.4.4 0 0 0 .1-.27c0-.1-.04-.2-.1-.26a.38.38 0 0 0-.52 0ZM17.97 9.63h-5.5c-.2 0-.37.16-.37.37 0 .2.16.37.37.37h5.5c.2 0 .36-.17.36-.37 0-.2-.16-.37-.36-.37ZM17.97 12.22H14.3c-.2 0-.37.16-.37.37 0 .2.17.37.37.37h3.67c.2 0 .36-.17.36-.37 0-.2-.16-.37-.36-.37ZM10.27 12.59c0 .2.16.37.36.37h.74c.2 0 .36-.17.36-.37 0-.2-.16-.37-.36-.37h-.74c-.2 0-.36.16-.36.37ZM16.5 7.4c0-.2-.16-.36-.37-.36h-5.5c-.2 0-.36.16-.36.37 0 .2.16.37.36.37h5.5c.2 0 .37-.17.37-.37ZM17.7 7.14a.38.38 0 0 0-.1.27c0 .1.04.19.1.26.08.07.17.1.27.1s.19-.03.26-.1a.4.4 0 0 0 .1-.26.4.4 0 0 0-.1-.27.38.38 0 0 0-.52 0ZM11.26 10.26c.07-.07.1-.16.1-.26s-.03-.2-.1-.27a.38.38 0 0 0-.52 0 .38.38 0 0 0-.1.27c0 .1.03.19.1.26s.16.1.26.1.2-.03.26-.1ZM13.1 12.85c.06-.07.1-.16.1-.26s-.04-.2-.1-.26a.38.38 0 0 0-.53 0 .4.4 0 0 0-.1.26c0 .1.04.2.1.26.07.07.17.11.26.11.1 0 .2-.04.26-.1ZM6.23 7.81v-.4c0-.2-.16-.37-.36-.37-.2 0-.37.16-.37.37v.4c-.4.09-.76.3-1.03.62-.23.27-.33.61-.3.97.04.36.23.7.51.92l.82.64v2.01a1.1 1.1 0 0 1-.73-1.04c0-.2-.17-.37-.37-.37-.2 0-.37.17-.37.37 0 .9.63 1.64 1.47 1.82v.32a.37.37 0 1 0 .73 0v-.33c.4-.08.77-.3 1.04-.61.22-.27.32-.61.29-.97-.04-.36-.22-.7-.5-.92l-.83-.64V8.58c.43.16.74.57.74 1.05 0 .2.16.37.36.37.2 0 .37-.17.37-.37 0-.9-.63-1.64-1.47-1.82Zm.37 4.01c.13.1.21.26.23.42.01.15-.03.3-.12.4-.13.16-.3.27-.48.33v-1.43l.37.28ZM5.13 9.73a.61.61 0 0 1-.23-.41.54.54 0 0 1 .13-.41c.12-.15.29-.26.47-.32v1.43l-.37-.29ZM14.67 4.44c.2 0 .36-.16.36-.37 0-.2-.16-.37-.36-.37-.2 0-.37.17-.37.37 0 .2.16.37.37.37ZM13.2 4.44c.2 0 .37-.16.37-.37 0-.2-.17-.37-.37-.37-.2 0-.37.17-.37.37 0 .2.17.37.37.37ZM16.13 4.44c.2 0 .37-.16.37-.37a.37.37 0 1 0-.73 0c0 .2.16.37.36.37ZM11.73 4.44c.2 0 .37-.16.37-.37a.37.37 0 1 0-.73 0c0 .2.16.37.36.37ZM17.6 4.44c.2 0 .37-.16.37-.37 0-.2-.17-.37-.37-.37-.2 0-.37.17-.37.37 0 .2.17.37.37.37ZM7.33 4.44c.2 0 .37-.16.37-.37a.37.37 0 1 0-.73 0c0 .2.16.37.36.37ZM8.8 4.44c.2 0 .37-.16.37-.37 0-.2-.17-.37-.37-.37-.2 0-.37.17-.37.37 0 .2.17.37.37.37ZM10.27 4.44c.2 0 .36-.16.36-.37 0-.2-.16-.37-.36-.37-.2 0-.37.17-.37.37 0 .2.16.37.37.37ZM19.07 4.44c.2 0 .36-.16.36-.37 0-.2-.16-.37-.36-.37-.2 0-.37.17-.37.37 0 .2.16.37.37.37ZM5.87 4.44c.2 0 .36-.16.36-.37 0-.2-.16-.37-.36-.37-.2 0-.37.17-.37.37 0 .2.16.37.37.37ZM4.4 4.44c.2 0 .37-.16.37-.37 0-.2-.17-.37-.37-.37-.2 0-.37.17-.37.37 0 .2.17.37.37.37ZM2.93 4.44c.2 0 .37-.16.37-.37a.37.37 0 1 0-.73 0c0 .2.16.37.36.37Z" fill="#fff" fill-opacity=".4"/></svg>