<svg width="23" height="25" fill="none" xmlns="http://www.w3.org/2000/svg"><path d="M6.56 16.46h13.63c1.55 0 2.81-1.27 2.81-2.84V7.74l-.01-.04v-.03l-.02-.04V7.6l-.02-.03-.01-.03a.11.11 0 0 0-.02-.03l-.01-.03-.02-.03-.02-.03a.09.09 0 0 0-.02-.02l-.02-.03-.02-.02-.02-.02c0-.02-.01-.02-.02-.03l-.03-.02-.03-.02-.03-.02s-.02 0-.03-.02l-.03-.01-.03-.02-.03-.01-.03-.01a.1.1 0 0 0-.03-.01h-.03l-.04-.01-.02-.01-17.28-2.4V2.21l-.01-.02-.01-.04-.01-.04v-.03l-.02-.05v-.02a.15.15 0 0 0-.03-.04v-.02a.1.1 0 0 0-.03-.03l-.01-.03-.02-.02-.02-.03-.01-.02a88.27 88.27 0 0 0-.05-.04l-.03-.03-.02-.02-.03-.03-.05-.02-.01-.01-.07-.03L.95.05a.68.68 0 0 0-.9.37.7.7 0 0 0 .37.91l3.33 1.42v15.2a2.83 2.83 0 0 0 2.44 2.81A2.79 2.79 0 0 0 8.57 25a2.8 2.8 0 0 0 2.39-4.21h6.18a2.79 2.79 0 0 0 2.4 4.21 2.8 2.8 0 0 0 2.76-2.8 2.8 2.8 0 0 0-2.77-2.8H6.56c-.8 0-1.44-.65-1.44-1.45v-1.88c.42.25.91.4 1.44.4Zm3.41 5.73a1.4 1.4 0 0 1-1.4 1.42 1.41 1.41 0 0 1 0-2.83c.77 0 1.4.63 1.4 1.41Zm10.96 0a1.4 1.4 0 0 1-1.4 1.42 1.41 1.41 0 0 1 0-2.83c.77 0 1.4.63 1.4 1.41Zm-.74-7.12H6.56c-.8 0-1.44-.65-1.44-1.45V6.13l16.5 2.3v5.19c0 .8-.64 1.45-1.43 1.45Z" fill="#fff" fill-opacity=".4"/></svg>